<?xml version="1.0" encoding="UTF-8" standalone="no"?>
<!DOCTYPE svg PUBLIC "-//W3C//DTD SVG 1.1//EN"
 "http://www.w3.org/Graphics/SVG/1.1/DTD/svg11.dtd">
<!-- Generated by graphviz version 2.49.0 (20210828.1703)
 -->
<!-- Pages: 1 -->
<svg width="152pt" height="314pt"
 viewBox="0.00 0.00 152.00 314.00" xmlns="http://www.w3.org/2000/svg" xmlns:xlink="http://www.w3.org/1999/xlink">
<g id="graph0" class="graph" transform="scale(1 1) rotate(0) translate(4 310)">
<polygon fill="white" stroke="transparent" points="-4,4 -4,-310 148,-310 148,4 -4,4"/>
<!-- f -->
<g id="node1" class="node">
<title>f</title>
<ellipse fill="none" stroke="black" cx="27" cy="-18" rx="27" ry="18"/>
<text text-anchor="middle" x="27" y="-14.3" font-family="Times New Roman,serif" font-size="14.00">f</text>
</g>
<!-- F -->
<g id="node2" class="node">
<title>F</title>
<ellipse fill="none" stroke="black" cx="117" cy="-18" rx="27" ry="18"/>
<text text-anchor="middle" x="117" y="-14.3" font-family="Times New Roman,serif" font-size="14.00">F</text>
</g>
<!-- f&#45;&gt;F -->
<g id="edge1" class="edge">
<title>f&#45;&gt;F</title>
<path fill="none" stroke="black" d="M54.4,-18C59.93,-18 65.91,-18 71.89,-18"/>
<polygon fill="black" stroke="black" points="79.92,-18 89.92,-22.5 84.92,-18 89.92,-18 89.92,-18 89.92,-18 84.92,-18 89.92,-13.5 79.92,-18 79.92,-18"/>
<ellipse fill="none" stroke="black" cx="75.92" cy="-18" rx="4" ry="4"/>
</g>
<!-- e -->
<g id="node3" class="node">
<title>e</title>
<ellipse fill="none" stroke="black" cx="27" cy="-72" rx="27" ry="18"/>
<text text-anchor="middle" x="27" y="-68.3" font-family="Times New Roman,serif" font-size="14.00">e</text>
</g>
<!-- E -->
<g id="node4" class="node">
<title>E</title>
<ellipse fill="none" stroke="black" cx="117" cy="-72" rx="27" ry="18"/>
<text text-anchor="middle" x="117" y="-68.3" font-family="Times New Roman,serif" font-size="14.00">E</text>
</g>
<!-- e&#45;&gt;E -->
<g id="edge2" class="edge">
<title>e&#45;&gt;E</title>
<path fill="none" stroke="black" d="M54.4,-72C60.81,-72 67.82,-72 74.73,-72"/>
<polygon fill="black" stroke="black" points="79.92,-72 89.92,-76.5 84.92,-72 89.92,-72 89.92,-72 89.92,-72 84.92,-72 89.92,-67.5 79.92,-72 79.92,-72"/>
<polygon fill="black" stroke="black" points="78.92,-67 78.92,-77 76.92,-77 76.92,-67 78.92,-67"/>
<polyline fill="none" stroke="black" points="79.92,-72 74.92,-72 "/>
</g>
<!-- d -->
<g id="node5" class="node">
<title>d</title>
<ellipse fill="none" stroke="black" cx="27" cy="-126" rx="27" ry="18"/>
<text text-anchor="middle" x="27" y="-122.3" font-family="Times New Roman,serif" font-size="14.00">d</text>
</g>
<!-- D -->
<g id="node6" class="node">
<title>D</title>
<ellipse fill="none" stroke="black" cx="117" cy="-126" rx="27" ry="18"/>
<text text-anchor="middle" x="117" y="-122.3" font-family="Times New Roman,serif" font-size="14.00">D</text>
</g>
<!-- d&#45;&gt;D -->
<g id="edge3" class="edge">
<title>d&#45;&gt;D</title>
<path fill="none" stroke="black" d="M54.4,-126C61.43,-126 69.17,-126 76.72,-126"/>
<polygon fill="black" stroke="black" points="88.92,-121 88.92,-131 86.92,-131 86.92,-121 88.92,-121"/>
<polyline fill="none" stroke="black" points="89.92,-126 84.92,-126 "/>
<ellipse fill="none" stroke="black" cx="80.92" cy="-126" rx="4" ry="4"/>
</g>
<!-- c -->
<g id="node7" class="node">
<title>c</title>
<ellipse fill="none" stroke="black" cx="27" cy="-180" rx="27" ry="18"/>
<text text-anchor="middle" x="27" y="-176.3" font-family="Times New Roman,serif" font-size="14.00">c</text>
</g>
<!-- C -->
<g id="node8" class="node">
<title>C</title>
<ellipse fill="none" stroke="black" cx="117" cy="-180" rx="27" ry="18"/>
<text text-anchor="middle" x="117" y="-176.3" font-family="Times New Roman,serif" font-size="14.00">C</text>
</g>
<!-- c&#45;&gt;C -->
<g id="edge4" class="edge">
<title>c&#45;&gt;C</title>
<path fill="none" stroke="black" d="M54.4,-180C62.39,-180 71.31,-180 79.82,-180"/>
<polygon fill="black" stroke="black" points="88.92,-175 88.92,-185 86.92,-185 86.92,-175 88.92,-175"/>
<polyline fill="none" stroke="black" points="89.92,-180 84.92,-180 "/>
<polygon fill="black" stroke="black" points="83.92,-175 83.92,-185 81.92,-185 81.92,-175 83.92,-175"/>
<polyline fill="none" stroke="black" points="84.92,-180 79.92,-180 "/>
</g>
<!-- b -->
<g id="node9" class="node">
<title>b</title>
<ellipse fill="none" stroke="black" cx="27" cy="-234" rx="27" ry="18"/>
<text text-anchor="middle" x="27" y="-230.3" font-family="Times New Roman,serif" font-size="14.00">b</text>
</g>
<!-- B -->
<g id="node10" class="node">
<title>B</title>
<ellipse fill="none" stroke="black" cx="117" cy="-234" rx="27" ry="18"/>
<text text-anchor="middle" x="117" y="-230.3" font-family="Times New Roman,serif" font-size="14.00">B</text>
</g>
<!-- b&#45;&gt;B -->
<g id="edge5" class="edge">
<title>b&#45;&gt;B</title>
<path fill="none" stroke="black" d="M54.4,-234C62.39,-234 71.31,-234 79.82,-234"/>
<polygon fill="black" stroke="black" points="79.92,-234 89.92,-238.5 84.92,-234 89.92,-234 89.92,-234 89.92,-234 84.92,-234 89.92,-229.5 79.92,-234 79.92,-234"/>
</g>
<!-- a -->
<g id="node11" class="node">
<title>a</title>
<ellipse fill="none" stroke="black" cx="27" cy="-288" rx="27" ry="18"/>
<text text-anchor="middle" x="27" y="-284.3" font-family="Times New Roman,serif" font-size="14.00">a</text>
</g>
<!-- A -->
<g id="node12" class="node">
<title>A</title>
<ellipse fill="none" stroke="black" cx="117" cy="-288" rx="27" ry="18"/>
<text text-anchor="middle" x="117" y="-284.3" font-family="Times New Roman,serif" font-size="14.00">A</text>
</g>
<!-- a&#45;&gt;A -->
<g id="edge6" class="edge">
<title>a&#45;&gt;A</title>
<path fill="none" stroke="black" d="M54.4,-288C63.97,-288 74.87,-288 84.82,-288"/>
<polygon fill="black" stroke="black" points="88.92,-283 88.92,-293 86.92,-293 86.92,-283 88.92,-283"/>
<polyline fill="none" stroke="black" points="89.92,-288 84.92,-288 "/>
</g>
</g>
</svg>
